<?xml version="1.0" encoding="utf-8"?>
<!-- Generator: Adobe Illustrator 19.0.0, SVG Export Plug-In . SVG Version: 6.00 Build 0)  -->
<svg version="1.1" id="LOGO_BLEU" xmlns="http://www.w3.org/2000/svg" xmlns:xlink="http://www.w3.org/1999/xlink" x="0px" y="0px"
	 viewBox="1230.9 385.9 170 70" style="enable-background:new 1230.9 385.9 170 70;" xml:space="preserve">
<style type="text/css">
	.st0{fill:#FFFFFF;}
	.st1{fill:#28A9E0;}
</style>
<g>
	<g>
		<path class="st0" d="M1305.3,436.3c0-0.9,0.4-1.6,1.2-1.6c0.9,0,1.2,0.7,1.2,1.6v2.9h1.6v-2.9c0-1.7-1.1-3.1-2.8-3.1
			c-1.7,0-2.8,1.4-2.8,3.1v3h1.6L1305.3,436.3z"/>
	</g>
	<g>
		<path class="st0" d="M1292.8,434.3C1292.8,434.4,1292.8,434.4,1292.8,434.3c-0.1,0.1-0.1,0-0.1,0l-0.2-1.1h-1.5v6.2h1.7v-3.3
			c0-0.3,0.7-1.6,2.2-1.2c0.7,0.2,1,0.5,1,0.5s0-1.2,0-1.9c-0.3-0.1-0.5-0.2-0.7-0.3C1293.7,432.8,1292.8,434.3,1292.8,434.3z"/>
	</g>
	<g>
		<path class="st0" d="M1299.6,433.3c-1.7,0-3.2,1.4-3.2,3.1c0,1.4,1,2.6,2.3,3c1.5,0.4,2.1-0.8,2.3-1.1c0,0,0-0.1,0.1-0.1
			s0.1,0.1,0.1,0.1v1h1.6v-2.9C1302.8,434.7,1301.4,433.3,1299.6,433.3z M1299.6,438c-0.9,0-1.6-0.7-1.6-1.6c0-0.9,0.7-1.6,1.6-1.6
			s1.6,0.7,1.6,1.6C1301.2,437.3,1300.5,438,1299.6,438z"/>
	</g>
	<g>
		<path class="st0" d="M1314.2,437.1c-0.2,0.5-0.5,0.9-1.2,0.9c-0.9,0-1.2-0.7-1.2-1.5c0-0.9,0.4-1.6,1.2-1.6c0.6,0,1,0.4,1.2,0.9
			h1.6c-0.2-1.4-1.3-2.4-2.8-2.4c-1.7,0-2.8,1.4-2.8,3.1l0,0v0v0l0,0c0,1.7,1.1,3.1,2.8,3.1c1.5,0,2.5-1,2.8-2.4H1314.2
			L1314.2,437.1z"/>
	</g>
	<path class="st0" d="M1322.2,437.6c-0.3,1.2-1.4,1.9-2.7,1.9c-1.6,0-2.8-1.1-2.8-3.1s1.4-3,2.8-3c1.7,0,2.9,1.1,2.8,3.4h-4
		c0.1,0.9,0.5,1.4,1.2,1.4c0.9,0,1.2-0.6,1.2-0.6L1322.2,437.6z M1318.3,435.8h2.3c-0.1-0.8-0.5-1.2-1.1-1.2
		S1318.4,435.1,1318.3,435.8z"/>
	<g>
		<path class="st0" d="M1320.1,420.7c0,1.9-0.8,3.3-2.7,3.3s-2.7-1.5-2.7-3.3v-6.3h-3.4v6.3c0,3.7,2.4,6.6,6.1,6.6
			c3.7,0,6.1-3,6.1-6.6v-6.3h-3.4L1320.1,420.7z"/>
	</g>
	<g>
		<rect x="1354.3" y="410.5" class="st0" width="3.4" height="16.5"/>
	</g>
	<g>
		<polygon class="st0" points="1360.3,411.1 1361.2,411.1 1361.2,413.7 1362,413.7 1362,411.1 1362.9,411.1 1362.9,410.5 
			1360.3,410.5 		"/>
	</g>
	<g>
		<polygon class="st0" points="1365.8,410.5 1365.1,412.7 1365.1,412.7 1364.3,410.5 1363.3,410.5 1363.3,413.7 1364,413.7 
			1364,411.4 1364,411.4 1364.8,413.7 1365.3,413.7 1366.1,411.4 1366.1,411.4 1366.1,413.7 1366.8,413.7 1366.8,410.5 		"/>
	</g>
	<g>
		<path class="st0" d="M1303.7,416.6c0,0.1,0,0.1-0.2,0.1c-0.1,0-0.1-0.1-0.1-0.1l-0.4-2.2h-3.1V427h3.4v-6.8c0-0.6,1.5-3.2,4.5-2.5
			c1.5,0.4,2.1,1,2.1,1s0-2.4,0-3.8c-0.5-0.3-0.9-0.4-1.4-0.5C1305.6,413.5,1303.7,416.4,1303.7,416.6z"/>
	</g>
	<g>
		<path class="st0" d="M1331.4,414.1c-3.7,0-6.7,3-6.7,6.7c0,0,0,9.1,0,10.4h3.4v-4.5v-1.7c0,0,0-0.1,0.1-0.1c0.1,0,0.1,0.1,0.2,0.1
			c0.3,0.6,1.7,3.1,4.8,2.3c2.8-0.8,4.9-3.4,4.9-6.4C1338.2,417.1,1335.2,414.1,1331.4,414.1z M1331.4,424.2c-1.9,0-3.4-1.5-3.4-3.4
			c0-1.9,1.5-3.4,3.4-3.4s3.4,1.5,3.4,3.4C1334.9,422.6,1333.3,424.2,1331.4,424.2z"/>
	</g>
	<g>
		<path class="st0" d="M1346.2,414.1c-3.7,0-6.7,3-6.7,6.7c0,3.1,2.1,5.6,4.9,6.4c3.2,0.8,4.6-1.7,4.8-2.3c0-0.1,0.1-0.1,0.2-0.1
			c0.1,0,0.1,0.1,0.1,0.1v2.1h3.4v-6.2C1353,417.1,1350,414.1,1346.2,414.1z M1346.2,424.2c-1.9,0-3.4-1.5-3.4-3.4
			c0-1.9,1.5-3.4,3.4-3.4s3.4,1.5,3.4,3.4S1348.1,424.2,1346.2,424.2z"/>
	</g>
	<g>
		<path class="st0" d="M1289.5,410.5h-4.2V427h3.9c5.1,0,9.2-1,9.2-8.2C1298.4,411.4,1294.6,410.5,1289.5,410.5z M1290.2,424.1
			l-1.4,0v-10.8h1.4c3.1,0,4.8,0.4,4.8,5.4C1295,423.9,1293.1,424.1,1290.2,424.1z"/>
	</g>
	<path class="st0" d="M1292,430c0-0.3-0.2-0.4-0.5-0.6c0,0-1.2-0.4-2.6-0.1c-0.4,0.1-0.8,0.2-1.1,0.5c-0.3,0.3-0.6,0.6-0.8,1.1
		c-0.2,0.5-0.3,1.2-0.3,2v0.4h-1.3v1.4h1.3v0v4.7h1.7v-0.7l0-4h1.5c0.1,0,0.1,0,0.2,0c0,0,0.1-0.1,0.1-0.2s0-1.2,0-1.2h-1.8v-0.5
		c0-0.4,0.1-0.8,0.2-1.1c0.1-0.3,0.3-0.5,0.5-0.6c0.2-0.1,0.4-0.2,0.6-0.3c0.2,0,0.5-0.1,0.8-0.1c0.2,0,0.5,0,0.7,0
		c0.2,0,0.5,0.1,0.7,0.2c0.1-0.1,0.1-0.3,0.1-0.5C1292,430.4,1292,430.2,1292,430z"/>
	<path class="st1" d="M1248.4,425h3.4c0.2,0,0.3,0,0.4-0.1c0.1-0.1,0.3-0.2,0.3-0.4s0-2.7,0-2.7h-4.1v-3.1c0-1,0.1-1.8,0.4-2.4
		c0.3-0.6,0.6-1.1,1-1.4c0.4-0.3,0.9-0.5,1.5-0.6c0.6-0.1,1.1-0.1,1.8-0.1c0.5,0,1.1,0,1.6,0.1c0.6,0.1,1.1,0.2,1.7,0.5
		c0.2-0.3,0.2-0.7,0.3-1c0.1-0.4,0.2-0.9,0.1-1.3c0-0.6-0.4-1-1.1-1.3c0,0-2.7-1-5.9-0.1c-0.9,0.2-1.7,0.6-2.5,1.2
		c-0.8,0.6-1.4,1.4-1.9,2.5c-0.5,1.1-0.7,2.6-0.7,4.4v2.8h-2.9v3.1h2.9v15.3c-0.1,0-0.2,0-0.3,0c-2.8-0.1-4.9-1.2-6.3-3.5
		c-3-4.7-2.5-13.3-0.7-17.4c2.1-4.8,5.1-7.3,9-10.8c0.8-0.7,1.6-1.4,2.5-2.2c3.4-3.1,5.4-5.8,6.5-7.6c1.9,1.9,4.9,5,7.6,7.7l0,0
		c0.3,0.3,0.7,0.7,1.1,1.1c4.2,4.1,11.2,11,11.1,19.8c-0.1,8.3-6.1,16.6-19.4,16.6h-0.7v-6.3l0,0v-4.2c0-0.6,1.7-3.5,4.9-2.8
		c1.6,0.4,2.3,1.1,2.3,1.1s0-2.7,0-4.2c-0.6-0.3-1-0.5-1.6-0.6c-3.2-0.7-5.2,2.4-5.3,2.6c0,0.1,0,0.1-0.2,0.1
		c-0.1,0-0.1-0.1-0.1-0.1l-0.4-2.4h-3.3V441l0,0v4.6c0.1,2,2,2.2,2.6,2.2h1.8c6.9,0,12.8-2.1,17-6.1c3.9-3.7,6-8.7,6.1-14.2
		c0.1-4.6-1.4-9.2-4.5-13.6c-2.5-3.7-5.5-6.7-7.7-8.9c-0.4-0.4-0.7-0.7-1-1c-4.3-4.3-9.4-9.5-9.4-9.6l-2.2-2.4c0,0-0.6,2.3-0.9,3.1
		c-0.2,0.5-1.4,3.8-6.7,8.6c-0.9,0.8-1.7,1.5-2.5,2.2c-4,3.5-7.5,6.5-10,12.1c-1.1,2.6-1.8,6.3-1.8,9.9c0,3.1,0.6,7.5,2.8,11
		c2.1,3.3,5.4,5.1,9.4,5.2c0.7,0,1.1,0,1.4,0c0.1,0,0.1,0,0.2,0c2.4,0,2.5-1.6,2.5-2.5v-1.7L1248.4,425z"/>
</g>
</svg>
