<?xml version="1.0" encoding="utf-8"?>
<!-- Generator: Adobe Illustrator 21.1.0, SVG Export Plug-In . SVG Version: 6.00 Build 0)  -->
<!DOCTYPE svg PUBLIC "-//W3C//DTD SVG 1.1//EN" "http://www.w3.org/Graphics/SVG/1.1/DTD/svg11.dtd">
<svg version="1.1" id="Ebene_1" xmlns="http://www.w3.org/2000/svg" xmlns:xlink="http://www.w3.org/1999/xlink" x="0px" y="0px"
	 width="294.8px" height="289.3px" viewBox="0 0 294.8 289.3" style="enable-background:new 0 0 294.8 289.3;" xml:space="preserve"
	>
<style type="text/css">
	.st0{fill:#FFFFFF;}
</style>
<title>Drupal_Europe_logo_vertical</title>
<g id="Livello_2">
	<g id="Livello_1-2">
		<path class="st0" d="M48,99.7c0.8-1.9,1.8-3.6,3-5.3l-3.8-3.7c-1.9,2.5-3.5,5.2-4.7,8.1L48,99.7z"/>
		<path class="st0" d="M49.8,119.7c-1.2-1.8-2.2-3.7-2.8-5.8l-4.8,3.2c1,2.7,2.4,5.2,4.2,7.4L49.8,119.7z"/>
		<path class="st0" d="M59.4,127.2c-1.9-0.7-3.7-1.7-5.3-3l-3,4.8c2.1,1.6,4.5,2.8,7,3.7L59.4,127.2z"/>
		<path class="st0" d="M86.8,108.2c0,0.4,0,0.8,0,1.2l5.2,3c0.5-2.9,0.4-5.9-0.2-8.9l-5.5,0.3C86.7,105.2,86.8,106.7,86.8,108.2z"/>
		<path class="st0" d="M46.2,108.2c0-1.5,0.2-3,0.5-4.5l-5.5-0.2c-0.6,2.9-0.6,5.9-0.2,8.9l5.2-3C46.2,109,46.2,108.6,46.2,108.2z"
			/>
		<path class="st0" d="M54.4,90.3c1.4-1.6,2.9-3.1,4.4-4.7l-1.4-5.9l-1.5,1.5c-1.6,1.6-3.3,3.3-4.9,5L54.4,90.3z"/>
		<path class="st0" d="M81.9,129.1l-3-4.8c-1.6,1.3-3.4,2.3-5.3,3l1.3,5.6C77.4,132,79.8,130.7,81.9,129.1z"/>
		<path class="st0" d="M63.4,81c1.1-1.1,2.1-2.2,3.1-3.3c1,1.1,2.1,2.2,3.1,3.3c0.3-2.2,0.6-4.5,0.9-6.9c-1.8-2.1-3.2-4.6-4-7.3
			c-0.8,2.7-2.2,5.1-4,7.3C62.8,76.5,63.1,78.8,63.4,81z"/>
		<path class="st0" d="M78.6,90.3l3.4-4.2c-1.6-1.8-3.3-3.4-4.9-5l-1.4-1.4l-1.4,5.9C75.8,87.2,77.3,88.7,78.6,90.3z"/>
		<path class="st0" d="M68.2,128.4c-0.6,0-1.1,0.1-1.7,0.1s-1.2,0-1.8-0.1l-1,5.6c1.8,0.2,3.7,0.2,5.5,0L68.2,128.4z"/>
		<path class="st0" d="M86,113.9c-0.6,2.1-1.5,4-2.8,5.8l3.4,4.9c1.8-2.2,3.2-4.7,4.2-7.4L86,113.9z"/>
		<path class="st0" d="M82,94.5c1.2,1.6,2.2,3.4,3,5.3l5.5-0.9c-1.2-2.9-2.7-5.6-4.6-8.1L82,94.5z"/>
		<path class="st0" d="M10.6,107.6c0-2,0.1-4,0.3-6l-10.7-0.5c-0.2,2-0.3,4-0.3,6.2c0,8.6,1.7,17.1,4.9,25.1l9.2-5.3
			C11.8,120.9,10.6,114.3,10.6,107.6z"/>
		<path class="st0" d="M108.8,52.5c-4.8-5.4-10-10.5-14.9-15.5c-2.2-2.2-4.4-4.4-6.5-6.5l-2.9,11.9c6.2,6.2,12.2,12.3,17.5,18.5
			L108.8,52.5z"/>
		<path class="st0" d="M17,133.5l-8.7,5.9c3.9,6.9,8.9,13.2,14.9,18.3l5.9-8.6C24.2,144.7,20.1,139.4,17,133.5z"/>
		<path class="st0" d="M115.9,133.5c-3.1,5.9-7.2,11.1-12.1,15.6l5.9,8.6c6-5.2,11.1-11.4,14.9-18.3L115.9,133.5z"/>
		<path class="st0" d="M122.3,107.6c0,6.7-1.2,13.3-3.5,19.5l9.2,5.3c3.3-8,5-16.5,4.9-25.1c0-2.1-0.1-4.1-0.3-6.1l-10.7,0.5
			C122.2,103.6,122.3,105.6,122.3,107.6z"/>
		<path class="st0" d="M31,60.8c5.3-6.3,11.3-12.4,17.5-18.5l-2.9-11.8c-2.1,2.2-4.3,4.4-6.5,6.5c-4.9,4.9-10,10-14.9,15.5L31,60.8z
			"/>
		<path class="st0" d="M57.2,33.5c3.1-3.2,6.3-6.4,9.3-9.7c3,3.3,6.1,6.6,9.3,9.8c0.6-4.5,1.2-9.2,1.8-13.8
			C72.4,13.4,68.3,6.9,66.5,0c-1.8,6.9-5.9,13.4-11.1,19.7C56,24.3,56.6,28.9,57.2,33.5z"/>
		<path class="st0" d="M108.1,68.6c5.6,7.7,10,15.8,12.4,24.7l10.6-1.8c-2.8-11.5-8.4-21.4-15.3-30.4L108.1,68.6z"/>
		<path class="st0" d="M74.3,162.9c-5.3,0.8-10.6,0.8-15.9,0L56.5,173c6.5,1,13,1,19.5,0.1L74.3,162.9z"/>
		<path class="st0" d="M51.3,161.4c-5.7-1.6-11-4.1-15.9-7.4l-5.4,8.8c5.8,3.8,12.3,6.7,19,8.6L51.3,161.4z"/>
		<path class="st0" d="M103,162.8l-5.4-8.8c-4.9,3.3-10.2,5.8-15.9,7.4l2.3,10C90.7,169.6,97.2,166.7,103,162.8z"/>
		<path class="st0" d="M12.5,93.3c2.3-8.9,6.8-17,12.4-24.8l-7.7-7.5C10.3,70,4.6,80,1.9,91.5L12.5,93.3z"/>
		<path class="st0" d="M94.6,69.9c-3.1-3.4-6.3-6.6-9.4-9.8c-1.3-1.3-2.7-2.7-4-4l-2.5,10.4c3.5,3.5,7,7.1,10.1,10.7L94.6,69.9z"/>
		<path class="st0" d="M44.4,77.1c3.1-3.6,6.5-7.1,10.1-10.7L51.9,56c-1.3,1.3-2.7,2.7-4,4.1c-3.1,3.1-6.3,6.3-9.4,9.7L44.4,77.1z"
			/>
		<path class="st0" d="M30.9,107.6c0-1.8,0.1-3.5,0.4-5.3l-9.6-0.4c-0.3,2-0.4,4-0.4,6.1c0,4.7,0.7,9.4,2.2,13.8l8.7-4.9
			C31.3,113.8,30.9,110.7,30.9,107.6z"/>
		<path class="st0" d="M102.1,107.6c0,3.1-0.4,6.2-1.2,9.2l8.7,4.9c1.4-4.5,2.2-9.1,2.2-13.8c0-2-0.1-4.1-0.4-6.1l-9.6,0.4
			C102,104,102.1,105.8,102.1,107.6z"/>
		<path class="st0" d="M33.9,122l-8.2,5.5c2.3,4.8,5.5,9.2,9.4,12.9l5.7-8.3C37.9,129.2,35.6,125.8,33.9,122z"/>
		<path class="st0" d="M99,122c-1.7,3.8-4,7.2-6.8,10.2l5.7,8.3c3.9-3.7,7-8.1,9.3-12.9L99,122z"/>
		<path class="st0" d="M92.3,145.1l-5.3-8.5c-3,2.2-6.4,3.8-9.9,4.9l2.3,9.7C83.9,150,88.3,147.9,92.3,145.1z"/>
		<path class="st0" d="M70.9,142.9c-3,0.4-6,0.4-9,0l-1.8,9.8c4.1,0.6,8.3,0.6,12.5,0L70.9,142.9z"/>
		<path class="st0" d="M32.6,96.4c1.7-4.9,4.1-9.5,7.2-13.7l-6.8-6.5c-4.5,5.5-7.8,11.9-10,18.6L32.6,96.4z"/>
		<path class="st0" d="M60.8,60.1c1.9-2,3.9-4,5.7-6c1.9,2.1,3.8,4.1,5.7,6c0.5-3.9,1-7.9,1.6-12.1c-3.4-4.2-6.1-8.5-7.3-13.1
			c-1.2,4.6-3.9,8.9-7.3,13.1C59.7,52.2,60.3,56.2,60.8,60.1z"/>
		<path class="st0" d="M93.2,82.8c3.1,4.1,5.5,8.7,7.2,13.6l9.5-1.6c-2.1-6.8-5.5-13.1-9.9-18.6L93.2,82.8z"/>
		<path class="st0" d="M55.9,141.6c-3.5-1.1-6.9-2.8-9.9-4.9l-5.2,8.5c3.9,2.7,8.3,4.8,12.9,6.2L55.9,141.6z"/>
		<path class="st0" d="M30.1,214.3c0.1,8.1-4.8,16.2-16,16.2H1.6v-31.9h12.5C25.1,198.6,30,206.4,30.1,214.3z M7.6,224.8h6.6
			c7.3,0,10.1-5.3,10-10.5c-0.1-5-3-9.9-10-9.9H7.6V224.8z"/>
		<path class="st0" d="M56,208.1v11.8c0,3.4,1.9,6,5.4,6c3.6,0,5.7-2.9,5.7-6.3v-11.5h5.5v22.5h-5l-0.4-3.1
			c-2.3,2.3-4.5,3.4-7.6,3.4c-5.4,0-9.3-4.1-9.3-11v-11.8H56z"/>
		<path class="st0" d="M76.1,239.9v-31.9h5.2l0.4,3.1c1.7-2.3,4.4-3.6,7.3-3.6c6.9,0,11.5,5.1,11.5,11.8s-4.2,11.8-11.3,11.8
			c-2.4,0-5.9-0.7-7.5-3.2v12L76.1,239.9z M94.9,219.3c0-3.5-2.9-6.4-6.4-6.4c-3.5,0-6.4,2.9-6.4,6.4s2.9,6.4,6.4,6.4
			C92.1,225.7,94.9,222.9,94.9,219.3L94.9,219.3z"/>
		<path class="st0" d="M122,208.1h5.3v22.5h-5.2l-0.3-3.3c-1.3,2.6-4.8,3.9-7.3,4c-6.7,0-11.6-4.1-11.6-11.9s5.2-11.8,11.7-11.8
			c3,0,5.9,1.4,7.2,3.6L122,208.1z M108.5,219.3c-0.2,3.5,2.5,6.6,6,6.8c0.2,0,0.4,0,0.6,0c8.8,0,8.8-13.6,0-13.6
			c-3.5-0.2-6.5,2.6-6.7,6.1C108.5,218.8,108.5,219.1,108.5,219.3z"/>
		<path class="st0" d="M136.7,198.7v31.9h-5.5v-31.9H136.7z"/>
		<path class="st0" d="M170,230.5h-23.9v-31.9H170v5.8h-17.9v7.3h17.3v5.6h-17.3v7.2H170V230.5z"/>
		<path class="st0" d="M179.3,208.1v11.8c0,3.4,1.9,6,5.4,6s5.7-2.9,5.7-6.3v-11.5h5.5v22.5h-5l-0.4-3.1c-2.3,2.3-4.5,3.4-7.6,3.4
			c-5.4,0-9.3-4.1-9.3-11v-11.8H179.3z"/>
		<path class="st0" d="M241.2,219.3c0,6.5-4.4,11.7-11.7,11.7s-11.7-5.2-11.7-11.7s4.5-11.7,11.6-11.7c6.3-0.2,11.5,4.7,11.8,10.9
			C241.2,218.8,241.2,219.1,241.2,219.3z M223.4,219.3c0,3.4,2.1,6.6,6.1,6.6s6.1-3.2,6.1-6.6s-2.4-6.7-6.1-6.7
			C225.4,212.7,223.4,216,223.4,219.3z"/>
		<path class="st0" d="M244.1,239.9v-31.9h5.2l0.4,3.1c1.7-2.3,4.4-3.6,7.3-3.6c6.9,0,11.5,5.1,11.5,11.8s-4.1,11.8-11.4,11.8
			c-2.4,0-5.9-0.7-7.5-3.2v12L244.1,239.9z M262.9,219.3c0-3.5-2.9-6.4-6.4-6.4c-3.5,0-6.4,2.9-6.4,6.4c0,0,0,0,0,0
			c0,3.5,2.9,6.4,6.4,6.4C260.1,225.7,262.9,222.8,262.9,219.3z"/>
		<path class="st0" d="M276.8,221.3c0.4,2.8,2.8,4.8,6.7,4.8c2,0,4.7-0.8,6-2.1l3.6,3.5c-2.4,2.5-6.3,3.6-9.7,3.6
			c-7.8,0-12.4-4.8-12.4-12c0-6.8,4.6-11.8,11.9-11.8c7.5,0,12.2,4.6,11.4,13.9L276.8,221.3z M289,216.7c-0.4-2.9-2.6-4.4-5.8-4.4
			c-3,0-5.5,1.5-6.3,4.4H289z"/>
		<path class="st0" d="M47.5,207.9c-0.8-0.2-1.7-0.4-2.6-0.4c-2.3,0-4.6,0.4-6.3,3.2l-0.4-2.6H33v22.5h5.6v-11.8
			c0-4.1,2.7-5.7,5.6-5.7c1.2-0.1,2.4,0.3,3.3,0.9L47.5,207.9z"/>
		<path class="st0" d="M217.9,209.6c-1.6-1.4-3.7-2.2-5.8-2.1c-2.3,0-4.6,0.4-6.3,3.2l-0.4-2.6h-5.1v22.5h5.6v-11.8
			c0-4.1,2.7-5.7,5.6-5.7c1.4-0.1,2.8,0.4,3.9,1.4C216,212.7,216.9,211.1,217.9,209.6z"/>
		<path class="st0" d="M20.3,253.4c0.1,5.3-3.2,10.7-10.5,10.7H1.5v-21h8.3C17,243.1,20.2,248.3,20.3,253.4z M5.5,260.3h4.3
			c4.8,0,6.7-3.5,6.6-6.9c-0.1-3.3-2-6.6-6.6-6.6H5.5V260.3z"/>
		<path class="st0" d="M35.3,249.3h3.5v14.8h-3.5l-0.2-2.1c-0.8,1.7-3.2,2.6-4.8,2.6c-4.4,0-7.6-2.7-7.6-7.9s3.4-7.8,7.7-7.8
			c1.9-0.1,3.7,0.8,4.7,2.4L35.3,249.3z M26.4,256.7c-0.2,2.3,1.6,4.4,4,4.5c0.1,0,0.3,0,0.4,0c5.8,0,5.8-9,0-9
			c-2.3-0.1-4.3,1.7-4.4,4C26.4,256.4,26.4,256.6,26.4,256.7z"/>
		<path class="st0" d="M62.8,264.1v-7.9c0-2-1-3.7-3-3.7s-3.2,1.8-3.2,3.7v7.9H53v-14.8h3.4l0.3,1.8c0.8-1.3,2.3-2.1,3.9-2
			c1.9-0.1,3.7,1,4.4,2.8c1-1.8,3-2.8,5-2.7c4.2,0,6.3,2.6,6.3,7v8h-3.8v-8c0-2-0.8-3.6-2.8-3.6s-3.2,1.7-3.2,3.7v7.9H62.8z"/>
		<path class="st0" d="M88.3,253.3c-1-0.9-2.3-1.4-3.7-1.3c-1.7,0-2.7,0.5-2.7,1.5s0.9,1.5,2.8,1.6c2.8,0.2,6.3,0.8,6.3,4.7
			c0,2.6-2.1,4.9-6.4,4.9c-2.6,0.2-5.1-0.8-6.8-2.7l1.8-2.6c1.4,1.3,3.2,2,5.1,2.1c1.4,0,2.7-0.7,2.7-1.8s-0.8-1.4-2.9-1.6
			c-2.8-0.2-6.1-1.2-6.1-4.6s3.6-4.6,6.3-4.6c2.1-0.1,4.2,0.6,5.8,2L88.3,253.3z"/>
		<path class="st0" d="M98.5,245.1v4.2h4.1v3.2h-4.1v6.4c-0.1,1,0.6,1.9,1.6,2.1c0.1,0,0.2,0,0.4,0c0.6,0,1.2-0.2,1.8-0.5l1,3.1
			c-1,0.4-2,0.6-3,0.6c-3.2,0.1-5.3-1.7-5.3-5.4v-6.4h-2.8v-3.2h2.8v-3.8L98.5,245.1z"/>
		<path class="st0" d="M116.3,249.3h3.5v14.8h-3.5l-0.2-2.2c-0.8,1.7-3.2,2.6-4.8,2.6c-4.4,0-7.6-2.7-7.6-7.9s3.4-7.8,7.7-7.8
			c1.9-0.1,3.7,0.8,4.7,2.4L116.3,249.3z M107.4,256.7c-0.2,2.3,1.6,4.4,4,4.5c0.1,0,0.3,0,0.4,0c5.8,0,5.8-9,0-9
			c-2.3-0.1-4.3,1.7-4.4,4C107.4,256.4,107.4,256.6,107.4,256.7z"/>
		<path class="st0" d="M138,243.1v21h-3.4l-0.2-2c-1.1,1.6-2.9,2.5-4.8,2.4c-4.4,0-7.6-2.9-7.6-7.8c0-5.1,3.2-7.8,7.5-7.8
			c1.6,0,4,0.8,4.9,2.4v-8.2L138,243.1z M125.6,256.7c0,2.3,1.9,4.3,4.3,4.3s4.3-1.9,4.3-4.3c0.1-2.3-1.8-4.3-4.1-4.3
			c-0.1,0-0.1,0-0.2,0c-2.3-0.1-4.1,1.7-4.2,4C125.6,256.5,125.6,256.6,125.6,256.7L125.6,256.7z"/>
		<path class="st0" d="M146.1,245.1v4.2h4.1v3.2h-4.1v6.4c-0.1,1,0.6,1.9,1.6,2.1c0.1,0,0.2,0,0.3,0c0.6,0,1.2-0.2,1.8-0.5l1,3.1
			c-1,0.4-2,0.6-3,0.6c-3.2,0.1-5.3-1.7-5.3-5.4v-6.4h-2.8v-3.2h2.8v-3.8L146.1,245.1z"/>
		<path class="st0" d="M53,250.1v0.7l0.3-0.5L53,250.1z"/>
		<path class="st0" d="M50.7,249.1c-0.4-0.1-0.8-0.1-1.3-0.1c-1.7-0.2-3.3,0.7-4.2,2.1l-0.3-1.7h-3.4v14.8h3.7v-7.8
			c-0.2-1.9,1.2-3.6,3-3.8c0.2,0,0.4,0,0.7,0c0.6,0,1.2,0.1,1.7,0.4L50.7,249.1z"/>
		<path class="st0" d="M157.1,267.3H155l0.6-3c-0.8-0.1-1.5-0.8-1.4-1.6c0-2.8,4.3-2.7,4.3,0.1C158.5,263.1,158.5,263,157.1,267.3z"
			/>
		<path class="st0" d="M178.9,248.1c-1.5-1.4-3.4-2.1-5.4-2.1c-4.6,0-7.4,3.5-7.4,7.9c0,3.5,2,7.2,7.4,7.2c1.8,0.1,3.5-0.6,4.8-1.7
			v-3.8h-5.5V252h9.2v9c-2.1,2.5-5.2,4-8.5,3.9c-8,0-11.3-5.3-11.3-10.9c0-6,3.8-11.6,11.3-11.6c3,0,5.9,1.2,8,3.3L178.9,248.1z"/>
		<path class="st0" d="M188.6,258.1c0.2,1.9,1.9,3.2,4.5,3.2c1.5,0,2.9-0.5,4-1.4l2.4,2.4c-1.8,1.6-4.1,2.5-6.5,2.5
			c-5.2,0-8.3-3.2-8.3-8c0-4.6,3.1-7.9,8-7.9c5,0,8.2,3.1,7.6,9.3L188.6,258.1z M196.7,255c-0.2-2-1.8-2.9-3.9-2.9
			c-1.9-0.2-3.7,1.1-4.2,2.9H196.7z"/>
		<path class="st0" d="M206.6,249.3l0.3,1.7c0.9-1.5,2.5-2.3,4.3-2.1c1.4,0,2.8,0.5,3.9,1.4l-1.7,3.2c-0.7-0.7-1.7-1-2.7-1
			c-1.9-0.2-3.6,1.3-3.8,3.2c0,0.2,0,0.4,0,0.7v8h-3.7v-15.1H206.6z"/>
		<path class="st0" d="M226.5,264.3v-8.1c0-2-1-3.8-3.1-3.8s-3.2,1.8-3.2,3.8v8.1h-3.7v-15.1h3.5l0.3,1.8c0.8-1.4,2.4-2.2,4-2.1
			c1.9-0.1,3.7,1,4.5,2.8c1-1.8,2.9-2.8,5-2.8c4.3,0,6.4,2.6,6.4,7.2v8.1h-3.7v-8.1c0-2-0.8-3.7-2.8-3.7s-3.3,1.7-3.3,3.7v8.1
			L226.5,264.3z"/>
		<path class="st0" d="M255.8,249.3h3.6v15.1h-3.5l-0.2-2.2c-0.9,1.8-3.2,2.6-4.9,2.7c-4.5,0-7.8-2.7-7.8-8s3.4-7.9,7.9-7.9
			c1.9-0.1,3.7,0.9,4.8,2.4L255.8,249.3z M246.8,256.8c-0.2,2.4,1.7,4.4,4,4.6c0.1,0,0.3,0,0.4,0c5.9,0,5.9-9.1,0-9.1
			c-2.4-0.1-4.4,1.7-4.5,4.1C246.8,256.5,246.8,256.6,246.8,256.8L246.8,256.8z"/>
		<path class="st0" d="M273.6,264.3v-7.9c0-2.3-1.3-4-3.6-4c-2.2,0.1-3.9,1.9-3.9,4.1c0,0,0,0.1,0,0.1v7.7h-3.7v-15.1h3.3l0.2,2
			c1.3-1.4,3.1-2.2,5-2.3c3.5,0,6.4,2.7,6.4,7.4v7.9L273.6,264.3z"/>
		<path class="st0" d="M294.8,249.3l-9.2,21.4h-4.1l2.8-6.5l-6-14.8h4.3l2.3,6.5l1.4,4.3l1.6-4.2l2.8-6.6L294.8,249.3z"/>
		<path class="st0" d="M2.2,283.8H4v-8.1H2.2v-2.1h4.2v10.2H8v1.9H2.2V283.8z"/>
		<path class="st0" d="M9,278.8c0-7.2,10.6-7.2,10.6,0v1.8c0,7.2-10.6,7.2-10.6,0L9,278.8z M11.3,280.6c-0.1,1.7,1.2,3.1,2.9,3.2
			s3.1-1.2,3.2-2.9c0-0.1,0-0.2,0-0.3v-1.8c0.1-1.7-1.2-3.1-2.9-3.2s-3.1,1.2-3.2,2.9c0,0.1,0,0.2,0,0.3V280.6z"/>
		<path class="st0" d="M24.6,279.2H31v1.9h-6.4V279.2z"/>
		<path class="st0" d="M35.6,283.8h1.8v-8.1h-1.9v-2.1h4.2v10.2h1.7v1.9h-5.8V283.8z"/>
		<path class="st0" d="M51.5,273.7v7.6h1.4v2.2h-1.4v2.3h-2.3v-2.3h-6.5l-0.2-2.3l5.5-7.5H51.5z M49.2,281.3v-5.6l-4.1,5.6H49.2z"/>
		<path class="st0" d="M65.6,276.6c-0.7-0.9-1.8-1.4-2.9-1.4c-1.7,0-2.5,0.7-2.5,1.6c0,1.1,1.3,1.4,2.7,1.5c2.5,0.3,4.9,1,4.9,3.9
			c0,2.7-2.4,3.9-5.1,3.9c-2.5,0-4.4-0.8-5.3-3l1.9-1c0.6,1.3,2,2,3.4,1.9c1.4,0,2.8-0.5,2.8-1.8c0-1.1-1.2-1.6-2.8-1.8
			c-2.5-0.3-4.8-1-4.8-3.7c0-2.5,2.5-3.5,4.7-3.5c1.9,0,3.8,0.5,4.8,2.4L65.6,276.6z"/>
		<path class="st0" d="M71.7,282.3c0.1,1.1,1.1,1.8,2.5,1.8c0.8,0,1.6-0.3,2.3-0.8l1.3,1.3c-1,0.9-2.3,1.4-3.7,1.4
			c-2.9,0-4.7-1.8-4.7-4.5c-0.1-2.4,1.7-4.4,4.1-4.5c0.2,0,0.3,0,0.5,0c2.8,0,4.6,1.8,4.3,5.3L71.7,282.3z M76.4,280.5
			c-0.2-1.1-1.1-1.8-2.2-1.7c-1.1-0.1-2.1,0.6-2.4,1.7H76.4z"/>
		<path class="st0" d="M80,289.3v-12.1h2l0.1,1.2c0.6-0.9,1.7-1.4,2.8-1.4c2.4-0.1,4.3,1.8,4.4,4.2c0,0.1,0,0.2,0,0.3
			c0.2,2.3-1.5,4.3-3.8,4.5c-0.2,0-0.3,0-0.5,0c-1.1,0.1-2.1-0.4-2.8-1.2v4.6L80,289.3z M87.2,281.5c0-1.3-1.1-2.4-2.4-2.4
			c-1.3,0-2.4,1.1-2.4,2.4c0,1.3,1.1,2.4,2.4,2.4C86.1,283.9,87.1,282.9,87.2,281.5z"/>
		<path class="st0" d="M93.8,274.8v2.4h2.3v1.8h-2.4v3.7c-0.1,0.6,0.3,1.1,0.9,1.2c0.1,0,0.2,0,0.2,0c0.3,0,0.7-0.1,1-0.3l0.6,1.8
			c-0.6,0.2-1.1,0.4-1.8,0.4c-1.8,0.1-3.1-1-3.1-3.1v-3.7h-1.6v-1.8h1.6v-2.2L93.8,274.8z"/>
		<path class="st0" d="M99.5,282.3c0.1,1.1,1.1,1.8,2.5,1.8c0.8,0,1.6-0.3,2.3-0.8l1.3,1.3c-1,0.9-2.3,1.4-3.7,1.4
			c-2.9,0-4.7-1.8-4.7-4.5c-0.1-2.4,1.7-4.4,4.1-4.5c0.2,0,0.3,0,0.5,0c2.8,0,4.6,1.8,4.3,5.3L99.5,282.3z M104.2,280.5
			c-0.2-1.1-1.1-1.8-2.2-1.7c-1.1-0.1-2.1,0.6-2.4,1.7H104.2z"/>
		<path class="st0" d="M113.3,285.8v-4.6c0-1.1-0.6-2.1-1.8-2.1c-1.1,0.1-1.9,1.1-1.8,2.1v4.6h-2.1v-8.5h2l0.2,1
			c0.5-0.8,1.3-1.2,2.3-1.2c1.1-0.1,2.1,0.6,2.5,1.6c0.6-1,1.7-1.6,2.8-1.6c2.4,0,3.6,1.5,3.6,4v4.6h-2.1v-4.6
			c0-1.1-0.5-2.1-1.6-2.1c-1.1,0-1.9,1-1.9,2c0,0,0,0.1,0,0.1v4.6L113.3,285.8z"/>
		<path class="st0" d="M125.3,273.7v4.7c0.7-0.9,1.7-1.4,2.8-1.4c2.3-0.1,4.2,1.6,4.3,3.8c0,0.2,0,0.4,0,0.6
			c0.2,2.3-1.5,4.3-3.9,4.5c-0.2,0-0.4,0-0.5,0c-1.1,0.1-2.1-0.5-2.8-1.4l-0.1,1.2h-2v-12.1H125.3z M125.4,281.5
			c0,1.4,1.1,2.5,2.5,2.5c1.4,0,2.4-1.1,2.4-2.5c0.1-1.3-0.9-2.4-2.2-2.5c-0.1,0-0.1,0-0.2,0c-1.3,0-2.5,1-2.5,2.4
			C125.4,281.4,125.4,281.5,125.4,281.5z"/>
		<path class="st0" d="M135.8,282.3c0.1,1.1,1.1,1.8,2.5,1.8c0.8,0,1.6-0.3,2.3-0.8l1.4,1.3c-1,0.9-2.3,1.4-3.7,1.4
			c-2.9,0-4.7-1.8-4.7-4.5c-0.1-2.4,1.7-4.4,4.1-4.5c0.2,0,0.3,0,0.5,0c2.9,0,4.6,1.8,4.3,5.3L135.8,282.3z M140.4,280.5
			c-0.2-1.1-1.1-1.8-2.2-1.7c-1.1-0.1-2.1,0.6-2.4,1.7H140.4z"/>
		<path class="st0" d="M146,277.2l0.2,1c0.5-0.8,1.4-1.3,2.4-1.2c0.8,0,1.6,0.3,2.2,0.8l-1,1.8c-0.4-0.4-1-0.6-1.5-0.5
			c-1.1-0.1-2.1,0.8-2.1,1.9c0,0.1,0,0.2,0,0.3v4.5H144v-8.5L146,277.2z"/>
		<path class="st0" d="M155.1,277.2c0-2.6,2.4-3.7,4.7-3.7c2.4,0,5.1,1,5.1,3.9c0,3.1-2.3,3.7-4.9,3.7c-1,0-2.6,0.3-2.6,1.6v1h7.5
			v2.1H155v-3.2c0-2.8,2.5-3.6,4.9-3.6c0.9,0,2.6-0.2,2.6-1.6s-1.2-1.9-2.8-1.9c-1.2,0-2.4,0.6-2.4,1.7L155.1,277.2z"/>
		<path class="st0" d="M166.2,278.8c0-7.2,10.6-7.2,10.6,0v1.8c0,7.2-10.6,7.2-10.6,0V278.8z M168.5,280.6c-0.1,1.7,1.2,3.1,2.9,3.2
			c1.7,0.1,3.1-1.2,3.2-2.9c0-0.1,0-0.2,0-0.3v-1.8c0.1-1.7-1.2-3.1-2.9-3.2c-1.7-0.1-3.1,1.2-3.2,2.9c0,0.1,0,0.2,0,0.3V280.6z"/>
		<path class="st0" d="M177.9,283.8h1.8v-8.1h-1.9v-2.1h4.2v10.2h1.7v1.9h-5.8V283.8z"/>
		<path class="st0" d="M186.7,279.5c-0.9-0.4-1.5-1.4-1.5-2.4c0-2.4,2.3-3.7,4.9-3.7s5,1.3,5,3.7c0,1-0.6,1.9-1.6,2.3
			c1.1,0.5,1.8,1.5,1.8,2.7c0.1,2.8-2.5,3.9-5.2,3.9s-5.3-1.1-5.2-3.9C184.9,281,185.6,280,186.7,279.5z M187.2,282.2
			c0,0.9,1,1.8,2.8,1.8s2.9-0.9,2.8-1.8c0-1.2-1.3-1.7-2.8-1.7S187.3,281,187.2,282.2z M190.1,278.8c1.4,0,2.5-0.6,2.6-1.7
			s-1-1.7-2.6-1.7c-1.7,0-2.6,0.9-2.5,1.7C187.5,278.1,188.7,278.8,190.1,278.8L190.1,278.8z"/>
	</g>
</g>
</svg>
